<svg xmlns="http://www.w3.org/2000/svg" version="1.1" xmlns:xlink="http://www.w3.org/1999/xlink" xmlns:svgjs="http://svgjs.com/svgjs" width="1440" height="560" preserveAspectRatio="none" viewBox="0 0 1440 560"><g mask="url(&quot;#SvgjsMask1046&quot;)" fill="none"><path d="M720 556.85C791.02 553.88 848.9 509.28 901.76 461.76 958.79 410.5 1030.44 356.63 1027.91 280 1025.4 204.19 949.75 156.78 890.15 109.85 839.81 70.21 783.98 40.88 720 37.49 651.98 33.89 581.29 45.08 530.78 90.78 478.11 138.43 453.58 209.01 452.02 280 450.43 352.69 471.75 425.42 522.33 477.67 573.66 530.69 646.28 559.93 720 556.85" fill="rgba(233, 233, 233, 1)"></path><path d="M720 405.84C752.28 404.49 778.59 384.22 802.62 362.62 828.54 339.32 861.11 314.83 859.96 280 858.82 245.54 824.43 223.99 797.34 202.66 774.46 184.64 749.08 171.31 720 169.77 689.08 168.13 656.95 173.22 633.99 193.99 610.05 215.65 598.9 247.73 598.19 280 597.47 313.04 607.16 346.1 630.15 369.85 653.48 393.95 686.49 407.24 720 405.84" fill="rgba(245, 245, 245, 1)"></path></g><defs><mask id="SvgjsMask1046"><rect width="1440" height="560" fill="#ffffff"></rect></mask></defs></svg>